<svg width="631" height="209" viewBox="0 0 631 209" fill="none" xmlns="http://www.w3.org/2000/svg">
<g filter="url(#filter0_f_207_52)">
<path d="M468 91.5C468 102.27 398.156 111 312 111C225.844 111 156 102.27 156 91.5C156 80.7304 225.844 72 312 72C398.156 72 468 80.7304 468 91.5Z" fill="#9747FF"/>
</g>
<g filter="url(#filter1_d_207_52)">
<g clip-path="url(#clip0_207_52)">
<rect x="175.5" y="35" width="280" height="60" rx="10" fill="white"/>
<g filter="url(#filter2_d_207_52)">
<path d="M233.736 77C233.352 77 233.16 76.796 233.16 76.388C233.16 74.66 233.184 72.764 233.232 70.7C233.304 68.612 233.4 66.512 233.52 64.4C233.664 62.264 233.82 60.236 233.988 58.316C234.156 56.372 234.348 54.68 234.564 53.24C234.612 53.072 234.66 52.952 234.708 52.88C234.78 52.808 234.9 52.772 235.068 52.772H237.336C237.552 52.772 237.708 52.796 237.804 52.844C237.9 52.892 237.996 52.988 238.092 53.132L243.528 62.276C243.6 62.396 243.684 62.456 243.78 62.456C243.9 62.456 243.996 62.396 244.068 62.276L249.54 53.168C249.66 52.976 249.756 52.868 249.828 52.844C249.924 52.796 250.08 52.772 250.296 52.772H252.528C252.792 52.772 252.948 52.94 252.996 53.276C253.188 54.716 253.368 56.396 253.536 58.316C253.728 60.236 253.884 62.264 254.004 64.4C254.148 66.512 254.256 68.6 254.328 70.664C254.424 72.728 254.472 74.612 254.472 76.316C254.472 76.58 254.424 76.76 254.328 76.856C254.256 76.952 254.076 77 253.788 77H250.224C249.912 77 249.756 76.82 249.756 76.46C249.756 75.62 249.744 74.744 249.72 73.832C249.696 72.92 249.672 71.972 249.648 70.988C249.624 70.004 249.576 69.032 249.504 68.072C249.456 67.088 249.408 66.128 249.36 65.192C249.312 64.232 249.252 63.332 249.18 62.492C249.156 62.372 249.096 62.312 249 62.312C248.928 62.312 248.856 62.372 248.784 62.492L244.824 68.828C244.704 68.972 244.56 69.044 244.392 69.044H243.132C242.94 69.044 242.784 68.948 242.664 68.756L238.848 62.636C238.752 62.444 238.656 62.372 238.56 62.42C238.488 62.468 238.452 62.54 238.452 62.636C238.356 63.692 238.272 64.724 238.2 65.732C238.128 66.74 238.068 67.784 238.02 68.864C237.972 69.944 237.936 71.12 237.912 72.392C237.912 73.664 237.912 75.104 237.912 76.712C237.912 76.904 237.816 77 237.624 77H233.736ZM257.746 68.468C257.746 67.34 257.866 66.26 258.106 65.228C258.346 64.196 258.742 63.26 259.294 62.42C259.87 61.58 260.65 60.92 261.634 60.44C262.642 59.96 263.902 59.72 265.414 59.72C266.998 59.72 268.258 59.948 269.194 60.404C270.13 60.836 270.838 61.424 271.318 62.168C271.798 62.912 272.11 63.728 272.254 64.616C272.422 65.48 272.506 66.344 272.506 67.208C272.506 68.216 272.386 68.888 272.146 69.224C271.93 69.536 271.582 69.692 271.102 69.692H262.75C262.606 69.692 262.51 69.728 262.462 69.8C262.438 69.848 262.426 69.956 262.426 70.124C262.426 70.844 262.582 71.504 262.894 72.104C263.23 72.68 263.71 73.136 264.334 73.472C264.958 73.808 265.69 73.976 266.53 73.976C267.322 73.976 268.078 73.856 268.798 73.616C269.518 73.352 270.046 73.124 270.382 72.932C270.67 72.764 270.898 72.668 271.066 72.644C271.234 72.596 271.414 72.764 271.606 73.148L272.362 74.66C272.506 74.924 272.542 75.116 272.47 75.236C272.398 75.332 272.242 75.464 272.002 75.632C271.162 76.208 270.154 76.628 268.978 76.892C267.802 77.156 266.626 77.288 265.45 77.288C263.89 77.288 262.606 77.06 261.598 76.604C260.59 76.148 259.81 75.512 259.258 74.696C258.706 73.88 258.31 72.944 258.07 71.888C257.854 70.808 257.746 69.668 257.746 68.468ZM267.862 66.452C267.862 65.78 267.778 65.204 267.61 64.724C267.442 64.244 267.166 63.872 266.782 63.608C266.422 63.344 265.93 63.212 265.306 63.212C264.802 63.212 264.37 63.308 264.01 63.5C263.674 63.692 263.398 63.944 263.182 64.256C262.966 64.568 262.798 64.916 262.678 65.3C262.558 65.66 262.474 66.008 262.426 66.344C262.402 66.728 262.402 66.968 262.426 67.064C262.45 67.136 262.546 67.172 262.714 67.172H267.43C267.646 67.172 267.778 67.136 267.826 67.064C267.874 66.992 267.886 66.788 267.862 66.452ZM297.534 75.74C297.534 76.316 297.198 76.688 296.526 76.856C296.19 76.976 295.77 77.06 295.266 77.108C294.786 77.18 294.318 77.228 293.862 77.252C293.43 77.276 293.094 77.288 292.854 77.288C289.95 77.288 287.622 76.244 285.87 74.156C284.118 72.068 283.242 68.996 283.242 64.94C283.242 60.86 284.082 57.776 285.762 55.688C287.466 53.576 289.83 52.52 292.854 52.52C293.094 52.52 293.43 52.544 293.862 52.592C294.318 52.616 294.786 52.664 295.266 52.736C295.77 52.784 296.19 52.868 296.526 52.988C296.862 53.06 297.114 53.156 297.282 53.276C297.45 53.396 297.534 53.564 297.534 53.78V56.912C297.534 57.56 297.186 57.644 296.49 57.164C296.01 56.852 295.482 56.624 294.906 56.48C294.33 56.312 293.766 56.228 293.214 56.228C292.23 56.228 291.402 56.444 290.73 56.876C290.082 57.284 289.566 57.872 289.182 58.64C288.798 59.384 288.522 60.248 288.354 61.232C288.186 62.216 288.102 63.296 288.102 64.472C288.102 65.264 288.138 66.08 288.21 66.92C288.306 67.76 288.45 68.588 288.642 69.404C288.858 70.196 289.146 70.916 289.506 71.564C289.89 72.212 290.382 72.728 290.982 73.112C291.606 73.472 292.35 73.652 293.214 73.652C293.838 73.652 294.438 73.58 295.014 73.436C295.59 73.268 296.046 73.088 296.382 72.896C296.838 72.608 297.138 72.476 297.282 72.5C297.45 72.524 297.534 72.716 297.534 73.076V75.74ZM307.712 77.288C305.624 77.288 304.004 76.904 302.852 76.136C301.724 75.344 300.932 74.288 300.476 72.968C300.044 71.624 299.828 70.1 299.828 68.396C299.828 66.74 300.08 65.264 300.584 63.968C301.088 62.648 301.904 61.616 303.032 60.872C304.184 60.104 305.744 59.72 307.712 59.72C309.704 59.72 311.264 60.104 312.392 60.872C313.544 61.616 314.36 62.648 314.84 63.968C315.344 65.264 315.596 66.74 315.596 68.396C315.596 70.076 315.38 71.588 314.948 72.932C314.516 74.252 313.724 75.308 312.572 76.1C311.444 76.892 309.824 77.288 307.712 77.288ZM307.676 73.76C308.852 73.76 309.68 73.304 310.16 72.392C310.64 71.48 310.88 70.196 310.88 68.54C310.88 66.884 310.616 65.636 310.088 64.796C309.584 63.932 308.78 63.5 307.676 63.5C306.596 63.5 305.792 63.932 305.264 64.796C304.76 65.636 304.508 66.884 304.508 68.54C304.508 70.22 304.736 71.516 305.192 72.428C305.672 73.316 306.5 73.76 307.676 73.76ZM318.977 77C318.641 77 318.473 76.844 318.473 76.532C318.473 74.036 318.473 71.552 318.473 69.08C318.473 66.584 318.473 64.088 318.473 61.592C318.473 61.352 318.557 61.172 318.725 61.052C318.893 60.932 319.217 60.788 319.697 60.62C320.009 60.524 320.465 60.416 321.065 60.296C321.689 60.152 322.361 60.02 323.081 59.9C323.801 59.78 324.449 59.72 325.025 59.72C327.017 59.72 328.541 60.104 329.597 60.872C330.677 61.616 331.409 62.612 331.793 63.86C332.201 65.084 332.405 66.44 332.405 67.928C332.405 68.816 332.381 69.752 332.333 70.736C332.309 71.696 332.261 72.644 332.189 73.58C332.117 74.516 332.045 75.368 331.973 76.136C331.925 76.568 331.853 76.82 331.757 76.892C331.661 76.964 331.445 77 331.109 77H328.157C327.821 77 327.593 76.964 327.473 76.892C327.377 76.796 327.341 76.604 327.365 76.316C327.365 76.22 327.377 75.848 327.401 75.2C327.449 74.528 327.497 73.736 327.545 72.824C327.593 71.912 327.629 71.012 327.653 70.124C327.701 69.236 327.725 68.516 327.725 67.964C327.725 66.716 327.617 65.768 327.401 65.12C327.185 64.448 326.873 63.992 326.465 63.752C326.057 63.512 325.541 63.392 324.917 63.392C324.677 63.392 324.449 63.404 324.233 63.428C324.017 63.452 323.825 63.488 323.657 63.536C323.441 63.56 323.285 63.656 323.189 63.824C323.093 63.992 323.045 64.268 323.045 64.652C323.045 65.66 323.045 66.824 323.045 68.144C323.045 69.464 323.045 70.832 323.045 72.248C323.045 73.664 323.045 75.092 323.045 76.532C323.045 76.844 322.913 77 322.649 77H318.977ZM335.204 76.568C335.204 72.464 335.204 68.36 335.204 64.256C335.204 60.152 335.204 56.048 335.204 51.944C335.204 51.656 335.372 51.512 335.708 51.512C336.332 51.512 336.944 51.512 337.544 51.512C338.168 51.512 338.78 51.512 339.38 51.512C339.692 51.512 339.848 51.656 339.848 51.944C339.848 53.264 339.848 54.584 339.848 55.904C339.848 57.224 339.848 58.532 339.848 59.828C339.848 60.02 339.896 60.14 339.992 60.188C340.088 60.212 340.184 60.2 340.28 60.152C340.496 60.08 340.856 59.996 341.36 59.9C341.888 59.804 342.38 59.756 342.836 59.756C343.94 59.756 344.876 59.924 345.644 60.26C346.436 60.572 347.072 61.064 347.552 61.736C348.056 62.408 348.428 63.272 348.668 64.328C348.932 65.384 349.088 66.656 349.136 68.144C349.16 69.152 349.148 70.184 349.1 71.24C349.052 72.272 348.98 73.268 348.884 74.228C348.788 75.164 348.68 75.968 348.56 76.64C348.536 76.784 348.464 76.88 348.344 76.928C348.248 76.976 348.116 77 347.948 77C347.372 77 346.808 77 346.256 77C345.704 77 345.152 77 344.6 77C344.216 77 344 76.964 343.952 76.892C343.928 76.82 343.952 76.568 344.024 76.136C344.144 75.176 344.24 74.168 344.312 73.112C344.384 72.032 344.432 70.964 344.456 69.908C344.48 68.876 344.456 67.94 344.384 67.1C344.312 66.26 344.168 65.552 343.952 64.976C343.76 64.376 343.472 63.932 343.088 63.644C342.728 63.332 342.248 63.176 341.648 63.176C341.456 63.176 341.24 63.2 341 63.248C340.76 63.296 340.532 63.356 340.316 63.428C340.172 63.452 340.052 63.536 339.956 63.68C339.884 63.8 339.848 63.968 339.848 64.184V76.568C339.848 76.856 339.692 77 339.38 77H335.708C335.372 77 335.204 76.856 335.204 76.568ZM351.683 68.468C351.683 67.34 351.803 66.26 352.043 65.228C352.283 64.196 352.679 63.26 353.231 62.42C353.807 61.58 354.587 60.92 355.571 60.44C356.579 59.96 357.839 59.72 359.351 59.72C360.935 59.72 362.195 59.948 363.131 60.404C364.067 60.836 364.775 61.424 365.255 62.168C365.735 62.912 366.047 63.728 366.191 64.616C366.359 65.48 366.443 66.344 366.443 67.208C366.443 68.216 366.323 68.888 366.083 69.224C365.867 69.536 365.519 69.692 365.039 69.692H356.687C356.543 69.692 356.447 69.728 356.399 69.8C356.375 69.848 356.363 69.956 356.363 70.124C356.363 70.844 356.519 71.504 356.831 72.104C357.167 72.68 357.647 73.136 358.271 73.472C358.895 73.808 359.627 73.976 360.467 73.976C361.259 73.976 362.015 73.856 362.735 73.616C363.455 73.352 363.983 73.124 364.319 72.932C364.607 72.764 364.835 72.668 365.003 72.644C365.171 72.596 365.351 72.764 365.543 73.148L366.299 74.66C366.443 74.924 366.479 75.116 366.407 75.236C366.335 75.332 366.179 75.464 365.939 75.632C365.099 76.208 364.091 76.628 362.915 76.892C361.739 77.156 360.563 77.288 359.387 77.288C357.827 77.288 356.543 77.06 355.535 76.604C354.527 76.148 353.747 75.512 353.195 74.696C352.643 73.88 352.247 72.944 352.007 71.888C351.791 70.808 351.683 69.668 351.683 68.468ZM361.799 66.452C361.799 65.78 361.715 65.204 361.547 64.724C361.379 64.244 361.103 63.872 360.719 63.608C360.359 63.344 359.867 63.212 359.243 63.212C358.739 63.212 358.307 63.308 357.947 63.5C357.611 63.692 357.335 63.944 357.119 64.256C356.903 64.568 356.735 64.916 356.615 65.3C356.495 65.66 356.411 66.008 356.363 66.344C356.339 66.728 356.339 66.968 356.363 67.064C356.387 67.136 356.483 67.172 356.651 67.172H361.367C361.583 67.172 361.715 67.136 361.763 67.064C361.811 66.992 361.823 66.788 361.799 66.452ZM376.297 77.288C374.761 77.288 373.477 77.06 372.445 76.604C371.437 76.148 370.657 75.512 370.105 74.696C369.553 73.88 369.169 72.944 368.953 71.888C368.737 70.832 368.629 69.692 368.629 68.468C368.629 67.34 368.737 66.26 368.953 65.228C369.193 64.196 369.589 63.26 370.141 62.42C370.717 61.58 371.497 60.92 372.481 60.44C373.489 59.96 374.749 59.72 376.261 59.72C377.317 59.72 378.229 59.828 378.997 60.044C379.789 60.26 380.485 60.62 381.085 61.124C381.253 61.292 381.361 61.424 381.409 61.52C381.481 61.592 381.517 61.724 381.517 61.916V64.58C381.517 64.796 381.445 64.916 381.301 64.94C381.181 64.94 381.061 64.892 380.941 64.796C380.317 64.244 379.657 63.884 378.961 63.716C378.289 63.548 377.593 63.464 376.873 63.464C376.249 63.464 375.697 63.608 375.217 63.896C374.761 64.16 374.389 64.532 374.101 65.012C373.813 65.492 373.585 66.044 373.417 66.668C373.273 67.268 373.201 67.88 373.201 68.504C373.201 69.608 373.333 70.556 373.597 71.348C373.861 72.116 374.245 72.716 374.749 73.148C375.253 73.556 375.877 73.76 376.621 73.76C377.173 73.76 377.713 73.688 378.241 73.544C378.793 73.4 379.393 73.172 380.041 72.86C380.449 72.668 380.737 72.764 380.905 73.148L381.769 75.164C381.865 75.356 381.889 75.512 381.841 75.632C381.817 75.728 381.721 75.824 381.553 75.92C380.929 76.376 380.137 76.724 379.177 76.964C378.217 77.18 377.257 77.288 376.297 77.288ZM379.141 81.716C379.141 82.436 378.829 83.084 378.205 83.66C377.605 84.236 376.777 84.524 375.721 84.524C374.905 84.524 374.221 84.356 373.669 84.02C373.141 83.708 372.709 83.336 372.373 82.904C372.229 82.712 372.157 82.508 372.157 82.292C372.157 82.1 372.265 81.956 372.481 81.86L373.237 81.536C373.477 81.416 373.657 81.368 373.777 81.392C373.897 81.44 373.993 81.524 374.065 81.644C374.209 81.932 374.401 82.16 374.641 82.328C374.881 82.496 375.145 82.58 375.433 82.58C375.841 82.58 376.141 82.472 376.333 82.256C376.525 82.04 376.621 81.812 376.621 81.572C376.621 81.284 376.513 81.056 376.297 80.888C376.105 80.72 375.853 80.588 375.541 80.492C375.229 80.42 374.893 80.384 374.533 80.384C374.317 80.384 374.161 80.3 374.065 80.132C373.969 79.988 373.981 79.832 374.101 79.664L375.397 77.432C375.493 77.288 375.589 77.18 375.685 77.108C375.805 77.06 375.937 77.036 376.081 77.036H377.161C377.449 77.036 377.533 77.18 377.413 77.468L376.441 79.844L375.721 78.908C376.849 79.028 377.701 79.316 378.277 79.772C378.853 80.228 379.141 80.876 379.141 81.716ZM390.593 77.252C389.369 77.252 388.217 77.12 387.137 76.856C386.081 76.568 385.217 76.028 384.545 75.236C383.897 74.444 383.573 73.292 383.573 71.78C383.573 70.532 383.801 69.512 384.257 68.72C384.737 67.904 385.337 67.28 386.057 66.848C386.801 66.416 387.569 66.128 388.361 65.984C389.153 65.816 389.861 65.732 390.485 65.732C390.989 65.732 391.469 65.756 391.925 65.804C392.405 65.828 392.849 65.876 393.257 65.948C393.473 66.02 393.581 65.864 393.581 65.48C393.581 64.592 393.305 63.968 392.753 63.608C392.225 63.248 391.481 63.068 390.521 63.068C389.609 63.068 388.733 63.236 387.893 63.572C387.077 63.908 386.381 64.22 385.805 64.508C385.541 64.652 385.361 64.7 385.265 64.652C385.193 64.604 385.133 64.448 385.085 64.184L384.761 62.168C384.713 61.856 384.713 61.652 384.761 61.556C384.809 61.46 384.941 61.34 385.157 61.196C385.781 60.788 386.573 60.464 387.533 60.224C388.493 59.96 389.513 59.828 390.593 59.828C392.225 59.828 393.533 60.02 394.517 60.404C395.501 60.764 396.233 61.256 396.713 61.88C397.217 62.504 397.541 63.224 397.685 64.04C397.853 64.832 397.937 65.66 397.937 66.524C397.961 67.532 397.961 68.528 397.937 69.512C397.937 70.472 397.913 71.432 397.865 72.392C397.817 73.352 397.745 74.324 397.649 75.308C397.601 75.572 397.529 75.776 397.433 75.92C397.337 76.04 397.145 76.172 396.857 76.316C396.521 76.484 396.077 76.628 395.525 76.748C394.973 76.844 394.373 76.928 393.725 77C393.101 77.096 392.513 77.156 391.961 77.18C391.409 77.228 390.953 77.252 390.593 77.252ZM390.881 74.48C391.073 74.48 391.289 74.468 391.529 74.444C391.769 74.396 392.009 74.336 392.249 74.264C392.489 74.192 392.681 74.096 392.825 73.976C392.993 73.856 393.089 73.7 393.113 73.508C393.185 72.932 393.245 72.296 393.293 71.6C393.341 70.904 393.341 70.232 393.293 69.584C393.293 69.272 393.173 69.056 392.933 68.936C392.693 68.768 392.345 68.672 391.889 68.648C391.457 68.6 391.097 68.576 390.809 68.576C390.593 68.576 390.317 68.624 389.981 68.72C389.669 68.792 389.369 68.936 389.081 69.152C388.793 69.368 388.553 69.692 388.361 70.124C388.193 70.556 388.109 71.108 388.109 71.78C388.109 72.308 388.217 72.776 388.433 73.184C388.649 73.592 388.961 73.916 389.369 74.156C389.777 74.372 390.281 74.48 390.881 74.48Z" fill="#5B08A9"/>
</g>
</g>
</g>
<defs>
<filter id="filter0_f_207_52" x="84" y="0" width="456" height="183" filterUnits="userSpaceOnUse" color-interpolation-filters="sRGB">
<feFlood flood-opacity="0" result="BackgroundImageFix"/>
<feBlend mode="normal" in="SourceGraphic" in2="BackgroundImageFix" result="shape"/>
<feGaussianBlur stdDeviation="36" result="effect1_foregroundBlur_207_52"/>
</filter>
<filter id="filter1_d_207_52" x="-4" y="35" width="639" height="182" filterUnits="userSpaceOnUse" color-interpolation-filters="sRGB">
<feFlood flood-opacity="0" result="BackgroundImageFix"/>
<feColorMatrix in="SourceAlpha" type="matrix" values="0 0 0 0 0 0 0 0 0 0 0 0 0 0 0 0 0 0 127 0" result="hardAlpha"/>
<feOffset dy="4"/>
<feGaussianBlur stdDeviation="2"/>
<feComposite in2="hardAlpha" operator="out"/>
<feColorMatrix type="matrix" values="0 0 0 0 0 0 0 0 0 0 0 0 0 0 0 0 0 0 0.25 0"/>
<feBlend mode="normal" in2="BackgroundImageFix" result="effect1_dropShadow_207_52"/>
<feBlend mode="normal" in="SourceGraphic" in2="effect1_dropShadow_207_52" result="shape"/>
</filter>
<filter id="filter2_d_207_52" x="229.16" y="51.512" width="172.813" height="41.012" filterUnits="userSpaceOnUse" color-interpolation-filters="sRGB">
<feFlood flood-opacity="0" result="BackgroundImageFix"/>
<feColorMatrix in="SourceAlpha" type="matrix" values="0 0 0 0 0 0 0 0 0 0 0 0 0 0 0 0 0 0 127 0" result="hardAlpha"/>
<feOffset dy="4"/>
<feGaussianBlur stdDeviation="2"/>
<feComposite in2="hardAlpha" operator="out"/>
<feColorMatrix type="matrix" values="0 0 0 0 0 0 0 0 0 0 0 0 0 0 0 0 0 0 0.25 0"/>
<feBlend mode="normal" in2="BackgroundImageFix" result="effect1_dropShadow_207_52"/>
<feBlend mode="normal" in="SourceGraphic" in2="effect1_dropShadow_207_52" result="shape"/>
</filter>
<clipPath id="clip0_207_52">
<rect x="175.5" y="35" width="280" height="60" rx="10" fill="white"/>
</clipPath>
</defs>
</svg>
