<svg width="40" height="40" viewBox="0 0 40 40" fill="none" xmlns="http://www.w3.org/2000/svg">
<g filter="url(#filter0_b_88_54)">
<circle cx="20" cy="20" r="20" fill="#FFFAF5"/>
</g>
<path d="M17.8265 20.3626C17.6697 20.2497 17.5453 20.1154 17.4603 19.9674C17.3754 19.8195 17.3317 19.6608 17.3317 19.5005C17.3317 19.3402 17.3754 19.1815 17.4603 19.0335C17.5453 18.8855 17.6697 18.7513 17.8265 18.6384L25.5052 13.0773C25.662 12.9644 25.7864 12.8301 25.8713 12.6821C25.9563 12.5342 26 12.3755 26 12.2152C26 12.0549 25.9563 11.8962 25.8713 11.7482C25.7864 11.6003 25.662 11.466 25.5052 11.3531C25.1917 11.1269 24.7677 11 24.3258 11C23.8838 11 23.4598 11.1269 23.1464 11.3531L15.4677 16.9263C14.5279 17.6093 14 18.5352 14 19.5005C14 20.4658 14.5279 21.3916 15.4677 22.0746L23.1464 27.6479C23.458 27.8722 23.8785 27.9986 24.3174 28C24.5376 28.0009 24.7558 27.9703 24.9596 27.9099C25.1635 27.8494 25.3488 27.7604 25.5052 27.6479C25.662 27.535 25.7864 27.4007 25.8713 27.2527C25.9563 27.1048 26 26.9461 26 26.7858C26 26.6255 25.9563 26.4668 25.8713 26.3188C25.7864 26.1708 25.662 26.0365 25.5052 25.9237L17.8265 20.3626Z" fill="#41116E"/>
<defs>
<filter id="filter0_b_88_54" x="-10" y="-10" width="60" height="60" filterUnits="userSpaceOnUse" color-interpolation-filters="sRGB">
<feFlood flood-opacity="0" result="BackgroundImageFix"/>
<feGaussianBlur in="BackgroundImageFix" stdDeviation="5"/>
<feComposite in2="SourceAlpha" operator="in" result="effect1_backgroundBlur_88_54"/>
<feBlend mode="normal" in="SourceGraphic" in2="effect1_backgroundBlur_88_54" result="shape"/>
</filter>
</defs>
</svg>
